<?xml version="1.0" encoding="utf-8"?>
<!-- Uploaded to: SVG Repo, www.svgrepo.com, Generator: SVG Repo Mixer Tools -->
<svg width="800px" height="800px" viewBox="0 0 1024 1024" class="icon"  version="1.1" xmlns="http://www.w3.org/2000/svg"><path d="M723.7 396.7H308.8c-101.3 0-183.5 84.9-183.5 189.6 0 104.7 82.2 189.6 183.5 189.6 65.2 0 122.3-35.2 154.8-88.1h105.2c32.6 52.9 89.7 88.1 154.8 88.1 101.4 0 183.5-84.9 183.5-189.6 0.1-104.7-82-189.6-183.4-189.6z" fill="#F07067" /><path d="M397.8 326.1h236.9v71.1H397.8z" fill="#96C8D1" /><path d="M723.7 373.1h-65.3v-47c0-13.1-10.6-23.7-23.7-23.7h-94.8v-24.8c0.3-6.3 0.1-29.6-17.3-48.5-14-15.3-34.5-23-60.8-23-22.8 0-28.3-4.3-29.2-5.2-3.9-3.9-3.7-22.2-3.6-37.2V160c0-13.1-10.6-23.7-23.7-23.7s-23.7 10.6-23.7 23.7v3.7c0 26.5-0.2 53 17.5 70.8 13.2 13.2 32.5 19.1 62.7 19.1 8.4 0 19.7 1.3 25.6 7.5 5.3 5.6 5.1 14 5.1 14-0.1 0.7-0.1 1.4-0.1 2v25.5h-94.7c-13.1 0-23.7 10.6-23.7 23.7v47h-65.3c-114.3 0-207.2 95.7-207.2 213.2 0 117.6 92.9 213.2 207.2 213.2 66.9 0 128.6-32.7 167.6-88.1H556c39 55.4 100.7 88.1 167.6 88.1 114.3 0 207.2-95.7 207.2-213.2 0.1-117.8-92.8-213.4-207.1-213.4z m-302.2-23.3h189.6v23.3H421.5v-23.3z m302.2 402.4c-54.7 0-105-28.7-134.6-76.8-4.3-7-12-11.3-20.2-11.3H463.7c-8.2 0-15.9 4.3-20.2 11.3-29.6 48.1-80 76.8-134.7 76.8-88.1 0-159.8-74.4-159.8-165.9 0-91.4 71.7-165.9 159.8-165.9h414.9c88.1 0 159.8 74.4 159.8 165.9s-71.7 165.9-159.8 165.9z" fill="#211F1E" /><path d="M371.2 558.6h-41.1v-41.1c0-13.1-10.6-23.7-23.7-23.7s-23.7 10.6-23.7 23.7v41.1h-41.1c-13.1 0-23.7 10.6-23.7 23.7s10.6 23.7 23.7 23.7h41.1v41.1c0 13.1 10.6 23.7 23.7 23.7s23.7-10.6 23.7-23.7V606h41.1c13.1 0 23.7-10.6 23.7-23.7s-10.6-23.7-23.7-23.7zM512.8 554.2c-4.6-4.6-12.1-4.6-16.8 0l-47.4 47.4c-4.6 4.6-4.6 12.1 0 16.8 2.3 2.3 5.3 3.5 8.4 3.5 3 0 6.1-1.2 8.4-3.5l47.4-47.4c4.6-4.6 4.6-12.1 0-16.8zM567.1 554.2l-47.4 47.4c-4.6 4.6-4.6 12.1 0 16.8 2.3 2.3 5.3 3.5 8.4 3.5 3 0 6.1-1.2 8.4-3.5l47.4-47.4c4.6-4.6 4.6-12.1 0-16.8-4.6-4.6-12.1-4.6-16.8 0zM692.9 512.8c-13.1 0-23.7 10.6-23.7 23.7s10.6 23.7 23.7 23.7 23.7-10.6 23.7-23.7-10.6-23.7-23.7-23.7zM784.6 604.4c-13.1 0-23.7 10.6-23.7 23.7s10.6 23.7 23.7 23.7 23.7-10.6 23.7-23.7-10.6-23.7-23.7-23.7zM784.6 512.8c-13.1 0-23.7 10.6-23.7 23.7s10.6 23.7 23.7 23.7 23.7-10.6 23.7-23.7-10.6-23.7-23.7-23.7zM692.9 604.4c-13.1 0-23.7 10.6-23.7 23.7s10.6 23.7 23.7 23.7 23.7-10.6 23.7-23.7-10.6-23.7-23.7-23.7z" fill="#211F1E" /></svg>