<?xml version="1.0" encoding="iso-8859-1"?>
<!-- Uploaded to: SVG Repo, www.svgrepo.com, Generator: SVG Repo Mixer Tools -->
<svg height="800px" width="800px" version="1.1" id="Layer_1" xmlns="http://www.w3.org/2000/svg" xmlns:xlink="http://www.w3.org/1999/xlink" 
	 viewBox="0 0 512 512" xml:space="preserve">
<path style="fill:#57545C;" d="M259.407,37.493c66.774-11.884,138.091,7.973,189.687,59.569
	c74.559,74.559,82.84,190.3,24.841,274.006l-114.799,83.563c-33.483,10.045-68.934,11.749-103.084,5.111L259.407,37.493z"/>
<g>
	<path style="fill:#781900;" d="M356.213,410.549v29.489c0,20.88,16.927,37.806,37.806,37.806H512
		c-20.88,0-37.806-16.927-37.806-37.806h0.191V186.313c0-45.485-36.872-82.357-82.357-82.357h-15.95L356.213,410.549z"/>
	<path style="fill:#781900;" d="M474.386,186.313c0-9.982-1.778-19.547-5.031-28.401h-96.773l-2.897,44.699h104.7V186.313z"/>
</g>
<g>
	<polygon style="fill:#FF5023;" points="474.386,202.612 369.687,202.612 366.685,248.93 474.386,248.93 	"/>
	<path style="fill:#FF5023;" d="M392.029,103.956h-15.95l-3.496,53.957h96.773C457.786,126.423,427.532,103.956,392.029,103.956z"/>
</g>
<polygon style="fill:#781900;" points="474.386,248.93 366.685,248.93 363.604,296.474 474.386,296.474 "/>
<polygon style="fill:#FF5023;" points="474.386,383.886 357.94,383.886 356.213,410.549 356.213,427.933 474.386,427.933 "/>
<g>
	<path style="fill:#781900;" d="M474.194,440.037h0.192v-12.104H356.213v12.104c0,20.88,16.927,37.806,37.806,37.806H512
		C491.12,477.843,474.194,460.917,474.194,440.037z"/>
	<polygon style="fill:#781900;" points="474.386,340.487 360.753,340.487 357.94,383.886 474.386,383.886 	"/>
</g>
<polygon style="fill:#FF5023;" points="474.386,296.474 363.604,296.474 360.753,340.487 474.386,340.487 "/>
<path style="fill:#D7D5D9;" d="M214.773,34.156c118.616,0,214.773,96.158,214.773,214.773s-96.157,214.773-214.773,214.773
	S0,367.546,0,248.93C0,158.342,56.083,80.853,135.423,49.291C135.423,49.291,175.957,34.156,214.773,34.156z"/>
<g>
	<path style="opacity:0.19;fill:#57545C;enable-background:new    ;" d="M345.119,78.497c27.802,36.203,44.341,81.51,44.341,130.685
		c0,118.616-96.157,214.773-214.773,214.773c-49.176,0-94.481-16.539-130.685-44.341c39.26,51.124,100.991,84.088,170.432,84.088
		c118.616,0,214.773-96.157,214.773-214.773C429.207,179.488,396.243,117.757,345.119,78.497z"/>
	<path style="fill:#57545C;" d="M233.937,164.53l-19.164,16.57l-19.164-16.57c-8.571-7.411-14.06-17.761-15.387-29.013
		l-6.668-56.538h82.437l-6.668,56.538C247.998,146.77,242.509,157.119,233.937,164.53z"/>
	<path style="fill:#57545C;" d="M195.61,333.329l19.164-16.57l19.164,16.57c8.571,7.411,14.06,17.761,15.387,29.013l6.668,56.538
		h-82.437l6.668-56.538C181.55,351.09,187.039,340.74,195.61,333.329z"/>
	<path style="fill:#57545C;" d="M130.374,229.766l16.57,19.164l-16.57,19.164c-7.411,8.571-17.761,14.06-29.013,15.387
		l-56.538,6.668V207.71l56.538,6.668C112.614,215.705,122.963,221.194,130.374,229.766z"/>
	<path style="fill:#57545C;" d="M300.865,268.093l-16.57-19.164l16.57-19.164c7.411-8.571,17.761-14.06,29.013-15.387l56.538-6.668
		v82.437l-56.538-6.668C318.626,282.153,308.276,276.664,300.865,268.093z"/>
</g>
<g>
	<path style="fill:#781900;" d="M130.374,229.766c-7.411-8.571-17.761-14.06-29.013-15.387l-10.658-1.257
		c-3.276,11.37-5.03,23.384-5.03,35.807c0,12.423,1.755,24.438,5.03,35.807l10.658-1.257c11.252-1.327,21.602-6.816,29.013-15.387
		l16.57-19.164L130.374,229.766z"/>
	<path style="fill:#781900;" d="M195.61,333.329c-8.571,7.411-14.06,17.761-15.387,29.013L178.966,373
		c11.37,3.276,23.384,5.031,35.807,5.031c12.423,0,24.439-1.755,35.807-5.031l-1.257-10.658
		c-1.327-11.252-6.816-21.602-15.387-29.013l-19.164-16.57L195.61,333.329z"/>
	<path style="fill:#781900;" d="M233.937,164.53c8.571-7.411,14.06-17.761,15.387-29.013l1.257-10.658
		c-11.37-3.276-23.384-5.03-35.807-5.03s-24.438,1.755-35.807,5.03l1.257,10.658c1.327,11.252,6.816,21.602,15.387,29.013
		l19.164,16.57L233.937,164.53z"/>
	<path style="fill:#781900;" d="M300.865,268.094c7.411,8.571,17.761,14.06,29.013,15.387l10.658,1.257
		c3.276-11.37,5.03-23.384,5.03-35.807c0-12.423-1.755-24.438-5.03-35.807l-10.658,1.257c-11.252,1.327-21.602,6.816-29.013,15.387
		l-16.57,19.164L300.865,268.094z"/>
</g>
<circle style="fill:#57545C;" cx="214.775" cy="248.933" r="21.832"/>
</svg>