<?xml version="1.0" ?>
<!-- Uploaded to: SVG Repo, www.svgrepo.com, Generator: SVG Repo Mixer Tools -->
<svg width="800px" height="800px" viewBox="0 0 512 512" enable-background="new 0 0 512 512" id="flat" version="1.1" xml:space="preserve" xmlns="http://www.w3.org/2000/svg" xmlns:xlink="http://www.w3.org/1999/xlink">
<path d="M288,296v119.548c0,8.615,6.621,16.028,15.226,16.434C312.415,432.415,320,425.093,320,416v-48  c0-8.837,7.164-16,16-16s16,7.164,16,16v7.548c0,8.615,6.621,16.028,15.226,16.434C376.415,392.415,384,385.093,384,376V232L288,296  z" fill="#E65C64"/>
<path d="M213.202,327.312l-19.52,19.52L54.075,498.579c-5.48,5.956-14.816,6.151-20.539,0.428l-18.483-18.483  c-5.558-5.558-5.558-14.571,0-20.129l165.616-165.616L213.202,327.312z" fill="#E6C067"/>
<path d="M345.341,286.266l-60.566,60.566l0,0c-22.401-22.401-57.865-24.921-83.209-5.913l-7.885,5.914  l-32.534-32.534L466.963,8.484v0C462.78,113.074,419.357,212.251,345.341,286.266z" fill="#98A0C9"/>
<polygon fill="#4D5166" points="70.055,405.392 106.386,441.724 75.203,475.608 37.521,437.926 "/>
<g>
<path d="M284.776,346.832L284.776,346.832l60.566-60.566c42.083-42.083,74.26-92.306,94.974-147.027   L250.454,329.101C263.081,331.247,275.138,337.194,284.776,346.832z" fill="#4D5166"/>
</g>
<path d="M320,488c0,8.837-7.163,16-16,16s-16-7.163-16-16s16-32,16-32S320,479.163,320,488z" fill="#E65C64"/>
<path d="M392,456c0,8.837-7.163,16-16,16s-16-7.163-16-16s16-32,16-32S392,447.163,392,456z" fill="#E65C64"/>
</svg>